<svg width="16" height="16" viewBox="0 0 16 16" fill="none" xmlns="http://www.w3.org/2000/svg">
<path d="M12.949 0.658203C13.2876 0.658203 13.6131 0.723307 13.9256 0.853516C14.2381 0.983724 14.518 1.17253 14.7654 1.41992C15.104 1.75846 15.3253 2.14909 15.4295 2.5918C15.5467 3.02148 15.5467 3.45768 15.4295 3.90039C15.3253 4.33008 15.104 4.71419 14.7654 5.05273L4.88262 14.9355L1.24981 15.6582L0.331841 15.8535L0.527154 14.9355L1.24981 11.3027L11.1326 1.41992C11.38 1.17253 11.66 0.983724 11.9725 0.853516C12.285 0.723307 12.6105 0.658203 12.949 0.658203ZM12.949 1.84961C12.6235 1.84961 12.311 1.99935 12.0115 2.29883L11.5818 2.74805L13.4373 4.60352L13.8865 4.17383C14.186 3.87435 14.3357 3.56185 14.3357 3.23633C14.3357 2.91081 14.186 2.59831 13.8865 2.29883C13.587 1.99935 13.2745 1.84961 12.949 1.84961ZM10.7029 3.62695L3.14434 11.1855C3.96465 11.6022 4.58314 12.2207 4.99981 13.041L12.5584 5.48242L10.7029 3.62695ZM2.34356 12.2012L1.9334 14.252L3.98419 13.8418C3.82794 13.4642 3.60658 13.1387 3.32012 12.8652C3.04669 12.5788 2.72116 12.3574 2.34356 12.2012Z" fill="white"/>
</svg>
