<svg width="31" height="30" viewBox="0 0 31 30" fill="none" xmlns="http://www.w3.org/2000/svg">
<circle cx="15.9443" cy="15" r="14" fill="white" stroke="#242B32" stroke-width="2"/>
<path d="M11.2715 22.0078V22.0078C14.0699 23.823 17.6428 23.9416 20.5555 22.3159L21.1075 22.0078" stroke="#242B32" stroke-width="2" stroke-linecap="round"/>
<path d="M22.4135 9.49267L22.5664 9.53944C23.4449 9.80819 24.184 10.4089 24.6266 11.214V11.214" stroke="#242B32" stroke-width="2" stroke-linecap="round"/>
<path d="M7.09142 11.3477V11.3477C7.46304 10.4341 8.351 9.83667 9.33728 9.8366L9.45305 9.8366" stroke="#242B32" stroke-width="2" stroke-linecap="round"/>
<path d="M9.73828 13.5449C10.2043 13.5452 10.582 13.9235 10.582 14.3896C10.5818 14.8527 10.2071 15.2292 9.73828 15.2295C9.26927 15.2295 8.89381 14.8528 8.89355 14.3896C8.89355 13.9234 9.27201 13.5449 9.73828 13.5449ZM22.2158 13.5449C22.6819 13.5451 23.0596 13.9235 23.0596 14.3896C23.0593 14.8527 22.6846 15.2293 22.2158 15.2295C21.7468 15.2295 21.3713 14.8528 21.3711 14.3896C21.3711 13.9234 21.7495 13.5449 22.2158 13.5449Z" fill="#242B32" stroke="#242B32" stroke-width="2"/>
</svg>
