<svg width="179" height="48" viewBox="0 0 179 48" fill="none" xmlns="http://www.w3.org/2000/svg">
<path d="M0.715405 37.7128C8.47159 45.69 15.178 48.9647 20.8741 47.3363C24.1239 46.4072 26.4958 44.3671 31.1806 39.2537C32.1931 38.1485 32.1908 38.151 32.5519 37.762C36.6875 33.3052 39.2208 31.4688 41.9899 31.4688C43.4636 31.4688 44.6325 31.5613 47.2575 31.8403L47.3474 31.8498C56.043 32.7737 60.393 32.0742 66.7214 27.16C68.6463 25.6653 70.353 23.9981 72.1058 21.9797C73.2148 20.7026 76.6574 16.3769 76.5356 16.5255C80.5903 11.5797 83.6249 9.66378 88.8564 9.66378C90.995 9.66378 93.0547 10.6 95.6883 12.5927C96.2655 13.0295 96.8689 13.5135 97.6176 14.1353C98.0025 14.4549 99.3688 15.6038 99.6169 15.8108C104.537 19.9159 107.793 21.8081 112.127 22.315C117.76 22.9738 124.002 20.6248 131.413 14.6224C146.905 2.07537 161.829 12.4825 176.513 46.7685C176.731 47.2762 177.318 47.5115 177.826 47.2941C178.334 47.0766 178.569 46.4888 178.352 45.9811C163.226 10.6629 147.051 -0.616365 130.154 13.0682C123.128 18.7589 117.393 20.9172 112.359 20.3285C108.519 19.8793 105.541 18.1483 100.898 14.2751C100.655 14.072 99.2861 12.9211 98.8953 12.5966C98.1253 11.9572 97.5001 11.4556 96.8951 10.9979C93.9463 8.7666 91.52 7.66378 88.8564 7.66378C82.9181 7.66378 79.3865 9.89342 74.9889 15.2575C75.0866 15.1383 71.6713 19.4296 70.5957 20.6683C68.9229 22.5947 67.3072 24.1729 65.4948 25.5803C59.6569 30.1136 55.7895 30.7355 47.5588 29.861L47.4688 29.8515C44.7743 29.5651 43.5573 29.4688 41.9899 29.4688C38.4532 29.4688 35.5993 31.5376 31.0858 36.4015C30.875 36.6287 30.6551 36.8673 30.3948 37.1509C30.228 37.3326 30.0501 37.5268 29.7059 37.9026C25.2894 42.7233 23.0766 44.6265 20.3244 45.4133C15.5172 46.7876 9.44573 43.8229 2.14934 36.3186C1.76434 35.9226 1.13124 35.9138 0.735268 36.2988C0.339297 36.6838 0.330404 37.3169 0.715405 37.7128Z" fill="#242B32"/>
<path d="M87.4324 14C91.2984 14 94.4324 10.866 94.4324 7C94.4324 3.13401 91.2984 0 87.4324 0C83.5664 0 80.4324 3.13401 80.4324 7C80.4324 10.866 83.5664 14 87.4324 14Z" fill="white"/>
<path d="M87.4324 11C89.6415 11 91.4324 9.20914 91.4324 7C91.4324 4.79086 89.6415 3 87.4324 3C85.2232 3 83.4324 4.79086 83.4324 7C83.4324 9.20914 85.2232 11 87.4324 11Z" fill="#242B32"/>
</svg>
