<svg width="179" height="48" viewBox="0 0 179 48" fill="none" xmlns="http://www.w3.org/2000/svg">
<path d="M1.14924 37.7128C8.90543 45.69 15.6118 48.9647 21.3079 47.3363C24.5577 46.4072 26.9297 44.3671 31.6145 39.2537C32.627 38.1485 32.6247 38.151 32.9857 37.762C37.1214 33.3052 39.6547 31.4688 42.4238 31.4688C43.8974 31.4688 45.0664 31.5613 47.6913 31.8403L47.7813 31.8498C56.4769 32.7737 60.8268 32.0742 67.1553 27.16C69.0802 25.6653 70.7869 23.9981 72.5396 21.9797C73.6486 20.7026 77.0913 16.3769 76.9694 16.5255C81.0241 11.5797 84.0587 9.66378 89.2902 9.66378C91.4288 9.66378 93.4885 10.6 96.1222 12.5927C96.6994 13.0295 97.3027 13.5135 98.0515 14.1353C98.4364 14.4549 99.8027 15.6038 100.051 15.8108C104.971 19.9159 108.227 21.8081 112.561 22.315C118.194 22.9738 124.436 20.6248 131.847 14.6224C147.339 2.07537 162.263 12.4825 176.947 46.7685C177.164 47.2762 177.752 47.5115 178.26 47.2941C178.768 47.0766 179.003 46.4888 178.785 45.9811C163.659 10.6629 147.485 -0.616365 130.588 13.0682C123.562 18.7589 117.826 20.9172 112.793 20.3285C108.953 19.8793 105.975 18.1483 101.332 14.2751C101.089 14.072 99.7199 12.9211 99.3292 12.5966C98.5591 11.9572 97.9339 11.4556 97.329 10.9979C94.3801 8.7666 91.9538 7.66378 89.2902 7.66378C83.3519 7.66378 79.8204 9.89342 75.4227 15.2575C75.5205 15.1383 72.1052 19.4296 71.0295 20.6683C69.3567 22.5947 67.7411 24.1729 65.9286 25.5803C60.0908 30.1136 56.2233 30.7355 47.9926 29.861L47.9027 29.8515C45.2081 29.5651 43.9911 29.4688 42.4238 29.4688C38.8871 29.4688 36.0331 31.5376 31.5197 36.4015C31.3089 36.6287 31.0889 36.8673 30.8287 37.1509C30.6618 37.3326 30.4839 37.5268 30.1398 37.9026C25.7232 42.7233 23.5105 44.6265 20.7582 45.4133C15.9511 46.7876 9.87957 43.8229 2.58318 36.3186C2.19818 35.9226 1.56508 35.9138 1.16911 36.2988C0.773135 36.6838 0.764242 37.3169 1.14924 37.7128Z" fill="#D0B5A4"/>
<path d="M87.8662 14C91.7322 14 94.8662 10.866 94.8662 7C94.8662 3.13401 91.7322 0 87.8662 0C84.0002 0 80.8662 3.13401 80.8662 7C80.8662 10.866 84.0002 14 87.8662 14Z" fill="white"/>
<path d="M87.8662 11C90.0753 11 91.8662 9.20914 91.8662 7C91.8662 4.79086 90.0753 3 87.8662 3C85.6571 3 83.8662 4.79086 83.8662 7C83.8662 9.20914 85.6571 11 87.8662 11Z" fill="#FF808B"/>
</svg>
