<svg width="179" height="48" viewBox="0 0 179 48" fill="none" xmlns="http://www.w3.org/2000/svg">
<path d="M0.658032 37.7128C8.41422 45.69 15.1206 48.9647 20.8167 47.3363C24.0665 46.4072 26.4384 44.3671 31.1232 39.2537C32.1358 38.1485 32.1335 38.151 32.4945 37.762C36.6301 33.3052 39.1635 31.4688 41.9325 31.4688C43.4062 31.4688 44.5751 31.5613 47.2001 31.8403L47.2901 31.8498C55.9857 32.7737 60.3356 32.0742 66.664 27.16C68.589 25.6653 70.2956 23.9981 72.0484 21.9797C73.1574 20.7026 76.6 16.3769 76.4782 16.5255C80.5329 11.5797 83.5675 9.66378 88.799 9.66378C90.9376 9.66378 92.9973 10.6 95.631 12.5927C96.2082 13.0295 96.8115 13.5135 97.5603 14.1353C97.9452 14.4549 99.3115 15.6038 99.5596 15.8108C104.48 19.9159 107.736 21.8081 112.07 22.315C117.702 22.9738 123.945 20.6248 131.356 14.6224C146.848 2.07537 161.772 12.4825 176.456 46.7685C176.673 47.2762 177.261 47.5115 177.769 47.2941C178.276 47.0766 178.512 46.4888 178.294 45.9811C163.168 10.6629 146.993 -0.616365 130.097 13.0682C123.071 18.7589 117.335 20.9172 112.302 20.3285C108.462 19.8793 105.483 18.1483 100.841 14.2751C100.597 14.072 99.2287 12.9211 98.838 12.5966C98.0679 11.9572 97.4427 11.4556 96.8377 10.9979C93.8889 8.7666 91.4626 7.66378 88.799 7.66378C82.8607 7.66378 79.3291 9.89342 74.9315 15.2575C75.0293 15.1383 71.614 19.4296 70.5383 20.6683C68.8655 22.5947 67.2499 24.1729 65.4374 25.5803C59.5995 30.1136 55.7321 30.7355 47.5014 29.861L47.4115 29.8515C44.7169 29.5651 43.4999 29.4688 41.9325 29.4688C38.3959 29.4688 35.5419 31.5376 31.0285 36.4015C30.8177 36.6287 30.5977 36.8673 30.3374 37.1509C30.1706 37.3326 29.9927 37.5268 29.6486 37.9026C25.232 42.7233 23.0192 44.6265 20.267 45.4133C15.4599 46.7876 9.38836 43.8229 2.09197 36.3186C1.70697 35.9226 1.07387 35.9138 0.677895 36.2988C0.281924 36.6838 0.273031 37.3169 0.658032 37.7128Z" fill="#D0B5A4"/>
<path d="M87.375 14C91.241 14 94.375 10.866 94.375 7C94.375 3.13401 91.241 0 87.375 0C83.509 0 80.375 3.13401 80.375 7C80.375 10.866 83.509 14 87.375 14Z" fill="white"/>
<path d="M87.375 11C89.5841 11 91.375 9.20914 91.375 7C91.375 4.79086 89.5841 3 87.375 3C85.1659 3 83.375 4.79086 83.375 7C83.375 9.20914 85.1659 11 87.375 11Z" fill="#D0B5A4"/>
</svg>
