<svg width="46" height="46" viewBox="0 0 46 46" fill="none" xmlns="http://www.w3.org/2000/svg">
<mask id="mask0_1_5" style="mask-type:alpha" maskUnits="userSpaceOnUse" x="0" y="0" width="46" height="46">
<rect width="46" height="46" fill="#351F64"/>
</mask>
<g mask="url(#mask0_1_5)">
<path d="M18.625 16H19.875V16.625H26.125V16H27.375V16.625H29.875V30.375H16.125V16.625H18.625V16ZM17.375 17.875V19.125H28.625V17.875H27.375V18.5H26.125V17.875H19.875V18.5H18.625V17.875H17.375ZM17.375 20.375V29.125H28.625V20.375H17.375ZM21.125 21.625H22.375V22.875H21.125V21.625ZM23.625 21.625H24.875V22.875H23.625V21.625ZM26.125 21.625H27.375V22.875H26.125V21.625ZM18.625 24.125H19.875V25.375H18.625V24.125ZM21.125 24.125H22.375V25.375H21.125V24.125ZM23.625 24.125H24.875V25.375H23.625V24.125ZM26.125 24.125H27.375V25.375H26.125V24.125ZM18.625 26.625H19.875V27.875H18.625V26.625ZM21.125 26.625H22.375V27.875H21.125V26.625ZM23.625 26.625H24.875V27.875H23.625V26.625Z" fill="#351F64"/>
</g>
</svg>
