<svg width="46" height="46" viewBox="0 0 46 46" fill="none" xmlns="http://www.w3.org/2000/svg">
<path d="M24.875 15.375C26.0078 15.375 27.056 15.6615 28.0195 16.2344C28.9701 16.7812 29.7188 17.5299 30.2656 18.4805C30.8385 19.444 31.125 20.4922 31.125 21.625C31.125 22.7578 30.8385 23.806 30.2656 24.7695C29.7188 25.7201 28.9701 26.4688 28.0195 27.0156C27.056 27.5885 26.0078 27.875 24.875 27.875C24.1328 27.875 23.4232 27.7513 22.7461 27.5039C22.082 27.2565 21.4766 26.9115 20.9297 26.4688L15.9492 31.4492L15.0508 30.5508L20.0312 25.5703C19.5885 25.0234 19.2435 24.418 18.9961 23.7539C18.7487 23.0768 18.625 22.3672 18.625 21.625C18.625 20.4922 18.9115 19.444 19.4844 18.4805C20.0312 17.5299 20.7799 16.7812 21.7305 16.2344C22.694 15.6615 23.7422 15.375 24.875 15.375ZM24.875 16.625C23.9635 16.625 23.1237 16.8529 22.3555 17.3086C21.6003 17.7513 20.9948 18.3568 20.5391 19.125C20.0964 19.8802 19.875 20.7135 19.875 21.625C19.875 22.5365 20.0964 23.3763 20.5391 24.1445C20.9948 24.8997 21.6003 25.5052 22.3555 25.9609C23.1237 26.4036 23.9635 26.625 24.875 26.625C25.7865 26.625 26.6198 26.4036 27.375 25.9609C28.1432 25.5052 28.7487 24.8997 29.1914 24.1445C29.6471 23.3763 29.875 22.5365 29.875 21.625C29.875 20.7135 29.6471 19.8802 29.1914 19.125C28.7487 18.3568 28.1432 17.7513 27.375 17.3086C26.6198 16.8529 25.7865 16.625 24.875 16.625Z" fill="#351F64"/>
</svg>
