<svg width="154" height="206" viewBox="0 0 154 206" fill="none" xmlns="http://www.w3.org/2000/svg">
<path d="M69.4929 22.2199V77.26H56.6764L32.3802 47.9315V77.26H17.1263V22.2199H29.9427L54.239 51.5484V22.2199H69.4929Z" fill="white"/>
<path d="M108.23 78.3608C102.412 78.3608 97.17 77.1289 92.5047 74.6652C87.8918 72.2015 84.2487 68.7943 81.5753 64.4435C78.9543 60.0927 77.6439 55.1915 77.6439 49.74C77.6439 44.2884 78.9543 39.3872 81.5753 35.0364C84.2487 30.6856 87.8918 27.2784 92.5047 24.8147C97.17 22.351 102.412 21.1191 108.23 21.1191C114.049 21.1191 119.265 22.351 123.877 24.8147C128.543 27.2784 132.186 30.6856 134.807 35.0364C137.48 39.3872 138.817 44.2884 138.817 49.74C138.817 55.1915 137.48 60.0927 134.807 64.4435C132.186 68.7943 128.543 72.2015 123.877 74.6652C119.265 77.1289 114.049 78.3608 108.23 78.3608ZM108.23 65.4657C111.009 65.4657 113.525 64.8104 115.779 63.5C118.033 62.1895 119.815 60.3548 121.125 57.996C122.436 55.5847 123.091 52.8327 123.091 49.74C123.091 46.6472 122.436 43.9214 121.125 41.5626C119.815 39.1513 118.033 37.2904 115.779 35.9799C113.525 34.6695 111.009 34.0142 108.23 34.0142C105.452 34.0142 102.936 34.6695 100.682 35.9799C98.428 37.2904 96.6458 39.1513 95.3353 41.5626C94.0248 43.9214 93.3696 46.6472 93.3696 49.74C93.3696 52.8327 94.0248 55.5847 95.3353 57.996C96.6458 60.3548 98.428 62.1895 100.682 63.5C102.936 64.8104 105.452 65.4657 108.23 65.4657Z" fill="white"/>
<path d="M79.1058 95.7227L55.5172 150.763H40.1846L16.6747 95.7227H33.5012L48.4406 131.577L63.6946 95.7227H79.1058Z" fill="white"/>
<path d="M134.38 138.733V150.763H90.1906V95.7227H133.358V107.753H105.602V117.031H130.055V128.668H105.602V138.733H134.38Z" fill="white"/>
<path d="M22.3666 203.703V205.803H3.52852V204.129L18.7565 184.93H3.75825V182.83H21.9727V184.504L6.77759 203.703H22.3666ZM12.9475 180.204C12.51 180.204 12.138 180.051 11.8317 179.745C11.5254 179.439 11.3722 179.067 11.3722 178.629C11.3722 178.191 11.5254 177.819 11.8317 177.513C12.138 177.207 12.51 177.054 12.9475 177.054C13.3851 177.054 13.7571 177.207 14.0634 177.513C14.3697 177.819 14.5228 178.191 14.5228 178.629C14.5228 179.067 14.3697 179.439 14.0634 179.745C13.7571 180.051 13.3851 180.204 12.9475 180.204Z" fill="#F8F8F8"/>
<path d="M48.1743 197.861V205.803H45.7785V197.861L36.5892 182.83H39.1819L47.0584 195.728L54.935 182.83H57.3636L48.1743 197.861Z" fill="#F8F8F8"/>
<path d="M83.241 206C80.9655 206 78.9089 205.497 77.071 204.49C75.2551 203.484 73.822 202.095 72.7718 200.322C71.7434 198.528 71.2293 196.526 71.2293 194.316C71.2293 192.107 71.7434 190.116 72.7718 188.343C73.822 186.549 75.266 185.149 77.1039 184.143C78.9417 183.136 80.9984 182.633 83.2738 182.633C84.9804 182.633 86.5557 182.917 87.9997 183.486C89.4438 184.055 90.669 184.886 91.6754 185.98L90.133 187.523C88.3389 185.707 86.0744 184.799 83.3395 184.799C81.5235 184.799 79.8716 185.215 78.3838 186.046C76.896 186.878 75.7255 188.015 74.8722 189.459C74.0408 190.903 73.6251 192.522 73.6251 194.316C73.6251 196.111 74.0408 197.73 74.8722 199.174C75.7255 200.618 76.896 201.755 78.3838 202.587C79.8716 203.418 81.5235 203.834 83.3395 203.834C86.0962 203.834 88.3607 202.915 90.133 201.077L91.6754 202.62C90.669 203.714 89.4328 204.556 87.9669 205.147C86.5229 205.716 84.9476 206 83.241 206Z" fill="#F8F8F8"/>
<path d="M109.98 182.83H112.409V205.803H109.98V182.83Z" fill="#F8F8F8"/>
<path d="M149.256 203.703V205.803H133.011V182.83H148.764V184.93H135.44V193.102H147.32V195.17H135.44V203.703H149.256Z" fill="#F8F8F8"/>
<rect x="2.5" y="2.5" width="148.839" height="164.564" rx="27.5" stroke="white" stroke-width="5"/>
</svg>
