<svg width="34" height="34" viewBox="0 0 34 34" fill="none" xmlns="http://www.w3.org/2000/svg">
<g clip-path="url(#clip0_411_3087)">
<path d="M17 21.7812C15.1937 21.7812 14.5562 21.3563 13.9719 20.9313C13.8125 20.825 13.7063 20.7188 13.5469 20.6656C11.9531 19.7094 10.7844 18.0625 10.2531 15.725C9.50937 15.4594 8.5 14.6625 8.5 12.75C8.5 11.2625 9.19062 10.7844 9.24375 10.7313C9.50937 10.5719 9.82812 10.625 9.9875 10.8906C10.1469 11.1562 10.0938 11.475 9.82812 11.6344C9.5625 11.7937 9.50937 11.9 9.50937 12.8031C9.50937 14.6094 10.625 14.8219 10.7313 14.8219C10.9438 14.875 11.1563 15.0344 11.2094 15.2469C11.5281 16.7344 12.2187 18.7531 14.025 19.8156C14.2375 19.9219 14.3969 20.0281 14.5562 20.1344C15.0875 20.5063 15.5125 20.7719 16.9469 20.7719C18.4344 20.7719 18.8063 20.5063 19.3375 20.1344C19.4969 20.0281 19.6563 19.9219 19.8688 19.8156C21.675 18.7531 22.4188 16.7875 22.6844 15.2469C22.7375 15.0344 22.95 14.8219 23.1625 14.8219C23.2687 14.8219 24.3844 14.6094 24.3844 12.8031C24.3844 11.9 24.0656 11.6344 24.0656 11.6344C23.8 11.475 23.7469 11.1562 23.9594 10.8906C24.1187 10.625 24.4906 10.5719 24.7031 10.7844C24.7563 10.8375 25.4469 11.3687 25.4469 12.8031C25.4469 14.7156 24.4375 15.5125 23.6937 15.7781C23.1625 18.0625 22.0469 19.7625 20.4 20.7188C20.2406 20.825 20.0812 20.9312 19.975 20.9844C19.4437 21.3562 18.8062 21.7812 17 21.7812Z" fill="white"/>
<path d="M9.56279 11.6879C9.35029 11.6879 9.19091 11.5816 9.08466 11.3691C8.97841 11.1035 9.08466 10.7848 9.35029 10.6785C10.7315 10.041 11.794 8.65977 12.8034 6.16289C12.8565 6.00352 13.0159 5.89727 13.1753 5.84414C13.3347 5.79102 13.5472 5.84414 13.6534 6.00352C15.194 7.43789 17.3722 7.11914 18.8065 6.90664C19.2315 6.85352 19.6034 6.80039 19.869 6.80039C21.994 6.80039 22.844 8.34102 23.4284 9.45664C23.8003 10.2004 24.0659 10.6785 24.4378 10.6785C24.7565 10.6785 24.969 10.891 24.969 11.2098C24.969 11.5285 24.7565 11.741 24.4378 11.741C23.4284 11.741 22.9503 10.8379 22.4722 9.98789C21.8878 8.92539 21.3565 7.91602 19.869 7.91602C19.6565 7.91602 19.3378 7.96914 18.9659 8.02227C17.5847 8.23477 15.3003 8.55352 13.494 7.33164C12.4315 9.66914 11.2628 11.0504 9.77529 11.741C9.72216 11.6879 9.61591 11.6879 9.56279 11.6879Z" fill="white"/>
<path d="M32.9375 33.4688C32.6187 33.4688 32.4062 33.2563 32.4062 32.9375C32.4062 30.0156 32.4063 27.6781 28.2625 26.6688C24.8094 25.8719 20.7188 24.2781 20.7188 21.5687V19.3906C20.7188 19.0719 20.9312 18.8594 21.25 18.8594C21.5688 18.8594 21.7812 19.0719 21.7812 19.3906V21.5687C21.7812 23.1094 24.225 24.5969 28.475 25.6594C33.4687 26.8281 33.4688 30.0688 33.4688 32.8844C33.4688 33.2031 33.2563 33.4688 32.9375 33.4688Z" fill="white"/>
<path d="M1.0625 32.9375H0.53125C0.53125 30.0688 0.53125 26.8281 5.525 25.6594C9.775 24.65 12.2188 23.1625 12.2188 21.5687V19.3906C12.2188 19.0719 12.4312 18.8594 12.75 18.8594C13.0688 18.8594 13.2812 19.0719 13.2812 19.3906V21.5687C13.2812 24.2781 9.19063 25.8719 5.7375 26.6688C1.59375 27.6781 1.59375 30.0156 1.59375 32.8844L1.0625 32.9375Z" fill="white"/>
<path d="M16.9995 29.2183C13.9714 29.2183 11.0495 27.837 9.03079 25.4464C8.81829 25.2339 8.87141 24.9152 9.08391 24.7027C9.29641 24.4902 9.61516 24.5433 9.82766 24.7558C11.687 26.9339 14.2902 28.1558 16.9995 28.1558C19.7089 28.1558 22.312 26.9339 24.1714 24.7558C24.3839 24.5433 24.7027 24.4902 24.9152 24.7027C25.1277 24.9152 25.1808 25.2339 24.9683 25.4464C22.9495 27.837 20.0277 29.2183 16.9995 29.2183Z" fill="white"/>
<path d="M9.40313 11.8469C9.19063 11.8469 8.97812 11.7406 8.925 11.5281C8.5 10.4125 8.5 10.0406 8.5 7.4375C8.5 5.20625 9.88125 3.4 11.3156 2.7625C12.4312 1.22187 14.1844 0.53125 17 0.53125C18.3813 0.53125 19.7094 0.796875 20.825 1.275C22.6844 1.80625 24.3312 1.59375 24.3312 1.59375C24.5969 1.54062 24.8625 1.75312 24.9156 2.01875C24.9156 2.07187 25.1812 3.24062 24.4906 4.25C25.1812 5.36562 25.4469 6.95937 25.4469 8.075C25.4469 9.08437 25.4469 10.4125 25.0219 11.5281C24.9156 11.7938 24.5969 11.9531 24.3312 11.8469C24.0656 11.7406 23.9062 11.4219 24.0125 11.1562C24.3844 10.2531 24.3844 9.08437 24.3844 8.075C24.3844 7.0125 24.0656 5.41875 23.4281 4.56875C23.2687 4.35625 23.2687 4.09063 23.4281 3.87813C23.7469 3.45312 23.8531 3.02813 23.8531 2.65625C23.1625 2.65625 21.8875 2.65625 20.5062 2.28438C20.4531 2.28438 20.4531 2.28437 20.4 2.23125C19.4438 1.80625 18.275 1.59375 17 1.59375C13.8656 1.59375 12.8031 2.49687 12.1125 3.50625C12.0594 3.6125 11.9531 3.66563 11.8469 3.71875C10.7312 4.14375 9.5625 5.57812 9.5625 7.4375C9.5625 9.9875 9.5625 10.2 9.93438 11.1031C10.0406 11.3687 9.88125 11.6875 9.61563 11.7938C9.5625 11.8469 9.45625 11.8469 9.40313 11.8469Z" fill="white"/>
</g>
<defs>
<clipPath id="clip0_411_3087">
<rect width="34" height="34" fill="white"/>
</clipPath>
</defs>
</svg>
