<svg width="37" height="37" viewBox="0 0 37 37" fill="none" xmlns="http://www.w3.org/2000/svg">
<path d="M30.9875 32.7406V36.3833C30.9875 36.7239 30.7114 37 30.3708 37C30.0302 37 29.7541 36.7239 29.7541 36.3833V32.7406C29.7541 29.9044 27.459 27.609 24.6225 27.6091C23.2804 27.6091 22.0627 26.9254 21.3651 25.7801C21.1879 25.4892 21.28 25.1098 21.5709 24.9326C21.8616 24.7553 22.2411 24.8476 22.4183 25.1384C22.8903 25.9132 23.7143 26.3757 24.6225 26.3757C28.1403 26.3757 30.9875 29.2224 30.9875 32.7406ZM20.6992 27.9654L18.5 29.668L14.7608 26.7731C15.5679 26.1248 16.0899 25.1817 16.1744 24.1107C16.9124 24.3279 17.6927 24.445 18.5 24.445C23.048 24.445 26.748 20.745 26.748 16.1971C26.748 16.1491 26.749 11.8795 26.746 11.8317C26.725 11.4981 26.4468 11.2541 26.1313 11.2541C26.0257 11.2541 25.2659 11.4044 24.5221 10.9569C23.3621 10.2591 23.3562 8.72946 23.3563 8.71412C23.3593 8.21307 22.7927 7.91738 22.3833 8.20699C19.8433 10.0051 16.8691 11.2244 13.6396 11.6765C13.3023 11.7238 13.0671 12.0354 13.1144 12.3727C13.1575 12.6811 13.4216 12.904 13.7243 12.904C13.8215 12.904 15.821 12.6592 18.094 11.8337C19.5584 11.3018 20.9615 10.6077 22.2771 9.7653C22.7317 11.4708 24.0064 12.4197 25.5147 12.5053V16.1971C25.5147 20.0649 22.368 23.2116 18.5001 23.2116C14.6322 23.2116 11.4855 20.0649 11.4855 16.1971V11.8708C11.4855 11.5303 11.2094 11.2542 10.8689 11.2542C10.5283 11.2542 10.2522 11.5303 10.2522 11.8708V16.1971C10.2522 19.4764 12.176 22.3146 14.9543 23.643V23.8056C14.9543 25.2271 13.8024 26.3757 12.3776 26.3757C11.5975 26.3757 10.8288 26.5168 10.1017 26.7948L9.70352 26.4779C6.57926 23.9913 5.99412 19.6015 8.12478 16.4033C9.03282 15.0402 9.55845 13.4099 9.55845 11.6656V8.32531C9.55845 4.41479 12.7398 1.23333 16.6501 1.23333H20.3501C24.2605 1.23333 27.4418 4.41464 27.4418 8.325V11.6653C27.4418 13.3619 27.9352 14.9969 28.8687 16.3932C30.5759 18.9471 30.5725 22.2989 28.8085 24.8587C28.6152 25.1391 28.6858 25.5231 28.9663 25.7164C29.2467 25.9096 29.6306 25.839 29.8239 25.5585C31.8775 22.5789 31.8799 18.6785 29.894 15.7078C29.0965 14.5149 28.675 13.1171 28.675 11.6653V8.325C28.675 3.73461 24.9404 0 20.35 0H16.65C12.0596 0 8.32504 3.73476 8.32504 8.32531V11.6653C8.32504 13.1129 7.90085 14.5148 7.09818 15.7196C4.61186 19.4521 5.31648 24.5285 8.8963 27.4109C7.13773 28.5645 6.01254 30.5237 6.01254 32.7406V36.3833C6.01254 36.7239 6.28865 37 6.62921 37C6.96976 37 7.24587 36.7239 7.24587 36.3833V32.7406C7.24587 29.9043 9.54103 27.609 12.3775 27.6091C12.7862 27.6091 13.19 27.5443 13.5772 27.4165L18.1225 30.9355C18.3448 31.1075 18.6553 31.1075 18.8775 30.9355L21.4542 28.9406C21.7235 28.7321 21.7728 28.3449 21.5643 28.0755C21.3558 27.8063 20.9686 27.7569 20.6992 27.9654Z" fill="white"/>
</svg>
